<?xml version="1.0" encoding="UTF-8"?>
<svg xmlns="http://www.w3.org/2000/svg" version="1.1" viewBox="0 0 257.66 71.98">
  <!-- Generator: Adobe Illustrator 30.6.0, SVG Export Plug-In . SVG Version: 2.1.4 Build 109)  -->
  <defs>
    <style>
      .st0 {
        fill: #fff;
      }

      .st0, .st1 {
        mix-blend-mode: multiply;
      }

      .st2 {
        fill: #1d1d1b;
      }

      .st3 {
        isolation: isolate;
      }
    </style>
  </defs>
  <g class="st3">
    <g id="Ebene_1">
      <g>
        <rect class="st0" x="0" y="0" width="257.66" height="71.98" rx="35.99" ry="35.99"/>
        <g class="st1">
          <path class="st2" d="M37.78,40.72c0,1.03-.2,1.92-.6,2.65s-.94,1.29-1.63,1.67c-.69.38-1.47.57-2.35.57-1.28,0-2.29-.4-3.04-1.2-.75-.8-1.12-1.91-1.12-3.33v-12.04h-3.88v12.51c0,1.62.28,2.98.84,4.09.56,1.1,1.34,1.94,2.35,2.5,1.01.56,2.19.85,3.52.85,1.5,0,2.81-.4,3.91-1.2.89-.65,1.61-1.63,2.15-2.93v3.88h3.72v-19.7h-3.88v11.67Z"/>
          <rect class="st2" x="46.87" y="22.49" width="3.88" height="26.26"/>
          <path class="st2" d="M64.92,28.77c-1.15,0-2.18.31-3.08.92s-1.54,1.46-1.9,2.54h-.21v-3.17h-3.75v19.7h3.88v-11.97c0-.87.2-1.64.6-2.3.4-.66.96-1.18,1.67-1.56.72-.38,1.52-.56,2.42-.56.41,0,.82.02,1.22.07s.67.09.81.14v-3.7c-.21-.04-.48-.06-.79-.08s-.6-.03-.85-.03Z"/>
          <path class="st2" d="M72.17,21.43c-.67,0-1.24.22-1.72.67-.48.45-.71.99-.71,1.64s.24,1.16.71,1.61c.48.45,1.05.68,1.72.68s1.25-.22,1.73-.67c.48-.45.72-.99.72-1.62s-.24-1.19-.72-1.64c-.48-.45-1.06-.67-1.73-.67Z"/>
          <rect class="st2" x="70.21" y="29.05" width="3.88" height="19.7"/>
          <path class="st2" d="M91.64,43.77c-.27.44-.61.82-1,1.13-.4.31-.85.55-1.36.72-.51.17-1.06.26-1.67.26-1.19,0-2.17-.31-2.95-.93-.78-.62-1.36-1.45-1.74-2.49-.38-1.04-.57-2.19-.57-3.45s.19-2.43.57-3.47c.38-1.05.96-1.88,1.74-2.51.78-.63,1.77-.94,2.95-.94.6,0,1.15.08,1.65.25s.94.4,1.32.71.71.67.98,1.08c.27.42.47.88.6,1.38l3.68-.88c-.25-.9-.62-1.72-1.12-2.44-.5-.72-1.11-1.33-1.83-1.83-.72-.5-1.53-.88-2.42-1.15-.89-.26-1.85-.4-2.87-.4-1.86,0-3.47.42-4.85,1.27-1.38.85-2.44,2.04-3.21,3.57s-1.15,3.32-1.15,5.37.38,3.8,1.15,5.32c.76,1.53,1.83,2.71,3.21,3.56,1.37.85,2.99,1.27,4.85,1.27,1.03,0,2-.14,2.91-.41.9-.27,1.72-.66,2.44-1.18s1.34-1.14,1.84-1.88c.5-.73.88-1.57,1.11-2.49l-3.67-.88c-.12.53-.31,1.01-.58,1.45Z"/>
          <path class="st2" d="M113.45,29.65c-1-.56-2.18-.85-3.52-.85-1.55,0-2.87.41-3.97,1.22-.8.6-1.47,1.46-1.99,2.57v-10.1h-3.84v26.26h3.88v-11.67c0-1.05.2-1.93.6-2.66.4-.73.95-1.28,1.64-1.67.69-.38,1.47-.57,2.34-.57,1.29,0,2.31.4,3.05,1.2s1.11,1.91,1.11,3.33v12.04h3.88v-12.51c0-1.63-.28-3-.84-4.1s-1.34-1.93-2.34-2.49Z"/>
          <path class="st2" d="M124.72,43.84c-.73,0-1.35.25-1.85.75-.51.5-.76,1.11-.76,1.82s.25,1.35.76,1.85c.5.51,1.12.76,1.85.76s1.33-.25,1.83-.76.76-1.12.76-1.85-.25-1.32-.76-1.82c-.51-.5-1.12-.75-1.83-.75Z"/>
          <path class="st2" d="M146.01,32.26h-.21c-.22-.41-.55-.89-.97-1.43-.42-.54-1.01-1.01-1.75-1.42-.75-.41-1.73-.61-2.95-.61-1.57,0-2.98.4-4.23,1.2-1.25.8-2.23,1.96-2.94,3.47-.72,1.52-1.08,3.34-1.08,5.48s.35,3.93,1.06,5.45c.71,1.52,1.68,2.69,2.93,3.51,1.25.82,2.67,1.23,4.27,1.23,1.19,0,2.16-.2,2.91-.61.75-.41,1.35-.88,1.78-1.42.43-.54.76-1.02.99-1.45h.32v3.08h3.77v-26.26h-3.88v9.76ZM145.49,42.52c-.39,1.04-.97,1.85-1.73,2.44-.76.59-1.69.88-2.79.88s-2.06-.31-2.82-.92c-.76-.61-1.34-1.44-1.73-2.48s-.58-2.22-.58-3.52.19-2.45.57-3.48c.38-1.03.95-1.84,1.71-2.44.76-.6,1.71-.9,2.85-.9s2.05.29,2.81.85c.76.57,1.33,1.36,1.72,2.38.39,1.02.58,2.21.58,3.59s-.2,2.56-.59,3.6Z"/>
          <path class="st2" d="M157.06,21.43c-.67,0-1.24.22-1.72.67-.48.45-.71.99-.71,1.64s.24,1.16.71,1.61c.48.45,1.05.68,1.72.68s1.25-.22,1.73-.67c.48-.45.72-.99.72-1.62s-.24-1.19-.72-1.64c-.48-.45-1.06-.67-1.73-.67Z"/>
          <rect class="st2" x="155.11" y="29.05" width="3.88" height="19.7"/>
          <path class="st2" d="M177.56,32.26h-.28c-.22-.41-.55-.89-.98-1.44-.43-.55-1.02-1.02-1.78-1.42-.76-.4-1.74-.6-2.95-.6-1.57,0-2.99.4-4.24,1.2-1.25.8-2.24,1.95-2.96,3.45s-1.08,3.29-1.08,5.38.36,3.85,1.09,5.29,1.71,2.51,2.95,3.24c1.24.73,2.63,1.09,4.19,1.09,1.2,0,2.17-.19,2.92-.56.75-.37,1.33-.81,1.74-1.31.42-.5.74-.98.98-1.41h.33v3.84c0,1.52-.47,2.63-1.4,3.34-.93.71-2.15,1.07-3.66,1.07-1.05,0-1.9-.15-2.57-.44-.67-.29-1.2-.65-1.6-1.07s-.71-.81-.94-1.19l-3.24,1.53c.38.79.93,1.5,1.65,2.15.72.65,1.64,1.16,2.76,1.55s2.43.58,3.95.58c1.69,0,3.21-.26,4.56-.79s2.41-1.35,3.19-2.46c.78-1.11,1.17-2.53,1.17-4.26v-19.99h-3.79v3.21ZM176.93,42.24c-.39.97-.96,1.71-1.72,2.22s-1.69.77-2.79.77-2.08-.27-2.85-.81-1.35-1.3-1.74-2.27c-.39-.97-.58-2.09-.58-3.38s.19-2.39.58-3.39c.39-1,.96-1.8,1.73-2.4s1.72-.89,2.86-.89,2.04.28,2.79.85,1.33,1.35,1.72,2.34c.39,1,.58,2.16.58,3.49s-.19,2.49-.58,3.46Z"/>
          <rect class="st2" x="186.57" y="29.05" width="3.88" height="19.7"/>
          <path class="st2" d="M188.52,21.43c-.67,0-1.24.22-1.72.67-.48.45-.71.99-.71,1.64s.24,1.16.71,1.61c.48.45,1.05.68,1.72.68s1.25-.22,1.73-.67c.48-.45.72-.99.72-1.62s-.24-1.19-.72-1.64c-.48-.45-1.06-.67-1.73-.67Z"/>
          <path class="st2" d="M203.1,45.65c-.33.05-.59.07-.79.07-.76,0-1.31-.19-1.65-.56s-.5-.95-.5-1.74v-11.23h3.93v-3.15h-3.93v-4.69h-3.88v4.69h-2.87v3.15h2.87v11.54c0,1.67.49,2.96,1.48,3.89.99.92,2.37,1.38,4.16,1.38.46,0,.92-.03,1.39-.1.47-.06.91-.17,1.32-.31l-.69-3.1c-.24.05-.52.09-.85.14Z"/>
          <path class="st2" d="M220.74,30.11c-.79-.49-1.63-.83-2.52-1.02-.89-.19-1.74-.28-2.54-.28-1.15,0-2.27.16-3.35.49s-2.04.85-2.87,1.57c-.83.72-1.47,1.66-1.92,2.84l3.65.95c.19-.45.47-.88.85-1.29s.88-.75,1.5-1.01c.62-.26,1.35-.4,2.21-.4s1.53.14,2.09.41c.56.28.98.67,1.26,1.17s.42,1.13.42,1.87v.11c0,.46-.17.79-.52,1-.35.21-.88.35-1.61.44-.73.09-1.67.2-2.84.34-.93.11-1.84.26-2.74.48-.9.21-1.72.53-2.45.95-.73.42-1.32.99-1.75,1.71-.43.72-.64,1.63-.64,2.75,0,1.29.29,2.39.88,3.28.59.89,1.39,1.57,2.4,2.04,1.01.46,2.14.7,3.38.7,1.07,0,1.99-.16,2.76-.47s1.41-.71,1.91-1.19c.5-.48.89-.98,1.15-1.48h.19v2.7h3.75v-13.08c0-1.43-.25-2.6-.74-3.49-.49-.89-1.13-1.59-1.92-2.08ZM219.54,41.65c0,.76-.2,1.49-.6,2.17-.4.68-.97,1.23-1.73,1.64-.75.41-1.66.62-2.71.62-.73,0-1.37-.11-1.92-.32s-.99-.53-1.31-.95c-.32-.42-.48-.95-.48-1.57,0-.68.18-1.23.54-1.64.36-.41.84-.73,1.45-.95.61-.22,1.27-.38,2-.48.31-.04.69-.08,1.16-.14s.96-.13,1.46-.22c.5-.09.96-.19,1.35-.3.39-.11.66-.24.8-.38v2.52Z"/>
          <rect class="st2" x="228.62" y="22.49" width="3.88" height="26.26"/>
        </g>
      </g>
    </g>
  </g>
</svg>