<?xml version="1.0" encoding="UTF-8"?>
<svg id="Ebene_1" xmlns="http://www.w3.org/2000/svg" xmlns:xlink="http://www.w3.org/1999/xlink" version="1.1" viewBox="0 0 453.5 255.1">
  <!-- Generator: Adobe Illustrator 30.0.0, SVG Export Plug-In . SVG Version: 2.1.1 Build 123)  -->
  <defs>
    <style>
      .st0 {
        font-family: ProductSans-Medium, 'Product Sans Medium';
        font-size: 72.8px;
        font-weight: 500;
        letter-spacing: 0em;
      }

      .st0, .st1 {
        display: none;
      }

      .st2 {
        fill: #fff;
        filter: url(#drop-shadow-1);
        stroke: #000;
        stroke-miterlimit: 10;
        stroke-width: 5.3px;
      }
    </style>
    <filter id="drop-shadow-1" x="13.7" y="68.5" width="431" height="124" filterUnits="userSpaceOnUse">
      <feOffset dx="2.8" dy="2.8"/>
      <feGaussianBlur result="blur" stdDeviation="5.7"/>
      <feFlood flood-color="#000" flood-opacity=".3"/>
      <feComposite in2="blur" operator="in"/>
      <feComposite in="SourceGraphic"/>
    </filter>
  </defs>
  <text class="st0" transform="translate(2 110.4)"><tspan x="0" y="0">ulrich.digital</tspan></text>
  <text class="st0" transform="translate(2 110.4)"><tspan x="0" y="0">ulrich.digital</tspan></text>
  <g id="ulrich.digital__x3E__inter" class="st1">
    <path d="M28.8,95.4v-21.3h8.7v36.8h-8.4v-6.5h-.4c-.8,2.1-2.2,3.7-4.1,5.1-1.9,1.3-4.2,2-7,2s-4.5-.5-6.4-1.6-3.3-2.7-4.3-4.7c-1-2.1-1.6-4.6-1.6-7.5v-23.4h8.7v22.1c0,2.3.6,4.2,1.9,5.6,1.3,1.4,3,2.1,5,2.1s2.5-.3,3.7-.9c1.2-.6,2.2-1.6,3-2.8.8-1.2,1.2-2.8,1.2-4.7Z"/>
    <path d="M58,61.8v49.1h-8.7v-49.1h8.7Z"/>
    <path d="M69.9,110.8v-36.8h8.4v6.1h.4c.7-2.1,1.8-3.8,3.5-4.9,1.6-1.2,3.5-1.7,5.6-1.7s1,0,1.6,0c.6,0,1.1,0,1.5.2v8c-.4-.1-.9-.2-1.7-.3-.8-.1-1.6-.2-2.3-.2-1.6,0-3,.3-4.3,1-1.3.7-2.2,1.6-3,2.8-.7,1.2-1.1,2.6-1.1,4.1v21.6h-8.7Z"/>
    <path d="M104,68.8c-1.4,0-2.6-.5-3.5-1.4-1-.9-1.5-2-1.5-3.3s.5-2.4,1.5-3.3c1-.9,2.2-1.4,3.5-1.4s2.6.5,3.6,1.4c1,.9,1.5,2,1.5,3.3s-.5,2.4-1.5,3.3c-1,.9-2.2,1.4-3.6,1.4ZM99.6,110.8v-36.8h8.7v36.8h-8.7Z"/>
    <path d="M136.2,111.5c-3.7,0-6.8-.8-9.4-2.4-2.6-1.6-4.6-3.8-6.1-6.7s-2.1-6.1-2.1-9.9.7-7,2.2-9.9c1.4-2.9,3.5-5.1,6.1-6.7,2.6-1.6,5.7-2.4,9.3-2.4s5.6.5,7.9,1.6c2.3,1.1,4.1,2.6,5.5,4.6,1.4,2,2.2,4.3,2.3,7h-8.3c-.3-1.8-1.1-3.3-2.4-4.4-1.3-1.2-2.9-1.8-5-1.8s-3.3.5-4.7,1.4c-1.3,1-2.4,2.3-3.1,4.1-.7,1.8-1.1,3.9-1.1,6.4s.4,4.7,1.1,6.5c.7,1.8,1.8,3.2,3.1,4.1,1.3,1,2.9,1.4,4.7,1.4s2.4-.2,3.4-.7c1-.5,1.9-1.2,2.6-2.1.7-.9,1.2-2.1,1.4-3.4h8.3c-.2,2.6-1,4.9-2.3,6.9-1.3,2-3.1,3.6-5.4,4.7-2.3,1.1-5,1.7-8,1.7Z"/>
    <path d="M170.8,89.3v21.6h-8.7v-49.1h8.5v18.5h.4c.9-2.1,2.2-3.7,4-4.9,1.8-1.2,4.1-1.8,6.9-1.8s4.8.5,6.7,1.6c1.9,1.1,3.4,2.6,4.4,4.7,1,2.1,1.6,4.6,1.6,7.5v23.4h-8.7v-22.1c0-2.5-.6-4.4-1.9-5.8-1.3-1.4-3-2.1-5.3-2.1s-2.9.3-4.1,1c-1.2.7-2.1,1.6-2.8,2.9-.7,1.2-1,2.8-1,4.5Z"/>
    <path d="M211.7,111.4c-1.5,0-2.7-.5-3.7-1.5-1-1-1.5-2.3-1.5-3.7,0-1.4.5-2.7,1.5-3.7,1-1,2.3-1.5,3.7-1.5s2.6.5,3.7,1.5c1,1,1.6,2.3,1.6,3.7,0,1-.3,1.9-.8,2.7-.5.8-1.1,1.4-1.9,1.9s-1.7.7-2.6.7Z"/>
    <path d="M242.6,111.5c-2.9,0-5.5-.7-7.8-2.2-2.3-1.5-4.1-3.6-5.4-6.5-1.3-2.8-2-6.3-2-10.3s.7-7.5,2-10.4,3.2-5,5.5-6.4,4.9-2.2,7.7-2.2,3.9.4,5.3,1.1c1.4.7,2.5,1.6,3.3,2.6s1.4,2,1.9,2.9h.4v-18.3h8.7v49.1h-8.5v-5.8h-.5c-.4.9-1.1,1.8-1.9,2.8s-2,1.8-3.4,2.6c-1.4.7-3.1,1.1-5.2,1.1ZM245,104.4c1.8,0,3.4-.5,4.7-1.5,1.3-1,2.3-2.4,2.9-4.2.7-1.8,1-3.9,1-6.3s-.3-4.4-1-6.2c-.7-1.8-1.6-3.1-2.9-4.1-1.3-1-2.9-1.5-4.7-1.5s-3.5.5-4.8,1.5c-1.3,1-2.3,2.4-2.9,4.2-.7,1.8-1,3.8-1,6.1s.3,4.3,1,6.1c.7,1.8,1.6,3.2,2.9,4.2,1.3,1,2.9,1.5,4.8,1.5Z"/>
    <path d="M278.8,68.8c-1.4,0-2.6-.5-3.5-1.4s-1.5-2-1.5-3.3.5-2.4,1.5-3.3c1-.9,2.2-1.4,3.5-1.4s2.6.5,3.6,1.4c1,.9,1.5,2,1.5,3.3s-.5,2.4-1.5,3.3c-1,.9-2.2,1.4-3.6,1.4ZM274.4,110.8v-36.8h8.7v36.8h-8.7Z"/>
    <path d="M311,125.4c-3.1,0-5.8-.4-8-1.3-2.2-.8-4-2-5.4-3.4s-2.3-3-2.8-4.7l7.8-1.9c.4.7.9,1.4,1.5,2.1.7.7,1.6,1.3,2.7,1.8,1.1.5,2.6.7,4.3.7s4.5-.6,6.1-1.8c1.6-1.2,2.4-3.1,2.4-5.9v-7h-.4c-.4.9-1.1,1.8-2,2.8-.9.9-2,1.7-3.4,2.4-1.4.6-3.2,1-5.3,1s-5.4-.7-7.7-2c-2.3-1.3-4.1-3.3-5.5-6-1.3-2.7-2-6-2-10s.7-7.5,2-10.2,3.2-4.9,5.5-6.3,4.9-2.2,7.7-2.2,3.9.4,5.3,1.1c1.4.7,2.5,1.6,3.3,2.6s1.5,2,1.9,2.9h.5v-6.1h8.6v37.4c0,3.1-.8,5.7-2.3,7.8s-3.6,3.6-6.2,4.6c-2.6,1-5.6,1.5-8.9,1.5ZM311.1,103.5c1.8,0,3.4-.4,4.7-1.3,1.3-.9,2.3-2.2,2.9-3.9.7-1.7,1-3.7,1-6s-.3-4.3-1-6.1c-.7-1.7-1.6-3.1-2.9-4.1s-2.9-1.4-4.7-1.4-3.5.5-4.8,1.5c-1.3,1-2.3,2.4-2.9,4.1-.7,1.7-1,3.7-1,6s.3,4.2,1,5.9c.7,1.7,1.6,3,2.9,3.9,1.3.9,2.9,1.4,4.8,1.4Z"/>
    <path d="M344.5,68.8c-1.4,0-2.6-.5-3.5-1.4s-1.5-2-1.5-3.3.5-2.4,1.5-3.3c1-.9,2.2-1.4,3.5-1.4s2.6.5,3.6,1.4c1,.9,1.5,2,1.5,3.3s-.5,2.4-1.5,3.3c-1,.9-2.2,1.4-3.6,1.4ZM340.1,110.8v-36.8h8.7v36.8h-8.7Z"/>
    <path d="M379.1,74v6.7h-21.2v-6.7h21.2ZM363.1,65.2h8.7v34.5c0,1.2.2,2.1.5,2.7.4.6.8,1,1.4,1.3s1.2.3,2,.3,1,0,1.5-.1.8-.2,1-.2l1.5,6.8c-.5.2-1.1.3-2,.5-.9.2-1.9.3-3.1.3-2.2,0-4.1-.3-5.9-1-1.7-.7-3.1-1.9-4.1-3.4-1-1.5-1.5-3.4-1.5-5.7v-36Z"/>
    <path d="M399.9,111.6c-2.3,0-4.4-.4-6.3-1.3-1.9-.8-3.3-2.1-4.4-3.7-1.1-1.6-1.6-3.7-1.6-6.1s.4-3.8,1.1-5.2c.8-1.4,1.8-2.4,3.1-3.3,1.3-.8,2.8-1.4,4.5-1.9,1.7-.4,3.4-.7,5.2-.9,2.2-.2,3.9-.4,5.2-.6,1.3-.2,2.3-.5,2.9-.9.6-.4.9-1,.9-1.8h0c0-1.9-.5-3.3-1.6-4.3-1.1-1-2.6-1.5-4.6-1.5s-3.8.5-5,1.4c-1.2.9-2.1,2-2.5,3.3l-8.1-1.1c.6-2.2,1.7-4.1,3.2-5.6s3.3-2.6,5.4-3.4c2.1-.8,4.5-1.1,7-1.1s3.5.2,5.3.6c1.8.4,3.4,1.1,4.8,2s2.6,2.2,3.5,3.9c.9,1.6,1.3,3.7,1.3,6.1v24.6h-8.3v-5.1h-.3c-.5,1-1.3,2-2.2,2.9-1,.9-2.1,1.6-3.6,2.1-1.4.5-3.1.8-5,.8ZM402.1,105.2c1.7,0,3.2-.3,4.5-1,1.3-.7,2.3-1.6,3-2.8.7-1.1,1-2.4,1-3.8v-4.3c-.3.2-.7.4-1.4.6-.6.2-1.4.4-2.2.5-.8.1-1.6.3-2.4.4-.8.1-1.5.2-2,.3-1.3.2-2.5.5-3.5.9-1,.4-1.8,1-2.4,1.7-.6.7-.9,1.6-.9,2.7,0,1.6.6,2.8,1.7,3.6,1.2.8,2.7,1.2,4.5,1.2Z"/>
    <path d="M439.7,61.8v49.1h-8.7v-49.1h8.7Z"/>
  </g>
  <g>
    <rect class="st2" x="28.7" y="83.2" width="396.2" height="88.7" rx="23.4" ry="23.4"/>
    <g id="ulrich.digital__x3E__inter1" data-name="ulrich.digital__x3E__inter">
      <path d="M80.4,132.1v-16.1h6.6v27.8h-6.4v-4.9h-.3c-.6,1.6-1.7,2.8-3.1,3.8-1.4,1-3.2,1.5-5.3,1.5s-3.4-.4-4.8-1.2-2.5-2-3.3-3.6c-.8-1.6-1.2-3.5-1.2-5.7v-17.7h6.6v16.7c0,1.8.5,3.2,1.4,4.2,1,1,2.2,1.6,3.8,1.6s1.9-.2,2.8-.7c.9-.5,1.6-1.2,2.2-2.1.6-.9.9-2.1.9-3.5Z"/>
      <path d="M102.5,106.7v37.1h-6.6v-37.1h6.6Z"/>
      <path d="M111.5,143.8v-27.8h6.4v4.6h.3c.5-1.6,1.4-2.8,2.6-3.7,1.2-.9,2.7-1.3,4.2-1.3s.8,0,1.2,0c.5,0,.8,0,1.1.1v6c-.3,0-.7-.2-1.3-.3-.6,0-1.2-.1-1.7-.1-1.2,0-2.3.3-3.2.8-.9.5-1.7,1.2-2.2,2.1-.5.9-.8,1.9-.8,3.1v16.3h-6.6Z"/>
      <path d="M137.2,112c-1,0-1.9-.3-2.7-1-.7-.7-1.1-1.5-1.1-2.5s.4-1.8,1.1-2.5c.7-.7,1.6-1,2.7-1s1.9.4,2.7,1c.7.7,1.1,1.5,1.1,2.5s-.4,1.8-1.1,2.5c-.7.7-1.6,1-2.7,1ZM133.9,143.8v-27.8h6.6v27.8h-6.6Z"/>
      <path d="M161.6,144.3c-2.8,0-5.2-.6-7.1-1.8-2-1.2-3.5-2.9-4.6-5.1s-1.6-4.6-1.6-7.4.5-5.3,1.6-7.5c1.1-2.2,2.6-3.9,4.6-5.1,2-1.2,4.3-1.8,7-1.8s4.3.4,6,1.2c1.7.8,3.1,2,4.2,3.5,1,1.5,1.6,3.3,1.8,5.3h-6.3c-.3-1.3-.9-2.5-1.8-3.4-.9-.9-2.2-1.3-3.8-1.3s-2.5.4-3.5,1.1c-1,.7-1.8,1.7-2.4,3.1-.6,1.3-.8,2.9-.8,4.8s.3,3.5.8,4.9c.6,1.4,1.3,2.4,2.3,3.1,1,.7,2.2,1.1,3.6,1.1s1.8-.2,2.6-.6c.8-.4,1.4-.9,1.9-1.6.5-.7.9-1.5,1.1-2.6h6.3c-.2,2-.7,3.7-1.7,5.2-1,1.5-2.4,2.7-4.1,3.5-1.7.9-3.8,1.3-6.1,1.3Z"/>
      <path d="M187.7,127.5v16.3h-6.6v-37.1h6.4v14h.3c.7-1.6,1.7-2.8,3-3.7,1.4-.9,3.1-1.4,5.2-1.4s3.6.4,5,1.2c1.4.8,2.5,2,3.3,3.5.8,1.6,1.2,3.5,1.2,5.7v17.7h-6.6v-16.7c0-1.9-.5-3.3-1.4-4.4-1-1-2.3-1.6-4-1.6s-2.2.3-3.1.8c-.9.5-1.6,1.2-2.1,2.2-.5.9-.8,2.1-.8,3.4Z"/>
      <path d="M218.6,144.2c-1.1,0-2-.4-2.8-1.2-.8-.8-1.2-1.7-1.2-2.8,0-1.1.4-2,1.2-2.8.8-.8,1.7-1.2,2.8-1.2s2,.4,2.8,1.2c.8.8,1.2,1.7,1.2,2.8,0,.7-.2,1.4-.6,2-.4.6-.9,1.1-1.4,1.4s-1.3.5-2,.5Z"/>
      <path d="M242,144.2c-2.2,0-4.1-.6-5.9-1.7-1.7-1.1-3.1-2.8-4.1-4.9-1-2.1-1.5-4.7-1.5-7.8s.5-5.7,1.5-7.8,2.4-3.7,4.1-4.8,3.7-1.6,5.8-1.6,3,.3,4,.8c1,.5,1.9,1.2,2.5,2s1.1,1.5,1.4,2.2h.3v-13.9h6.6v37.1h-6.4v-4.4h-.4c-.3.7-.8,1.4-1.5,2.1s-1.5,1.4-2.5,1.9c-1,.5-2.4.8-4,.8ZM243.8,138.9c1.4,0,2.6-.4,3.5-1.1,1-.8,1.7-1.8,2.2-3.2.5-1.4.8-2.9.8-4.7s-.3-3.4-.8-4.7c-.5-1.3-1.2-2.4-2.2-3.1-1-.7-2.2-1.1-3.6-1.1s-2.7.4-3.7,1.1c-1,.8-1.7,1.8-2.2,3.1-.5,1.3-.7,2.9-.7,4.6s.3,3.3.8,4.6c.5,1.4,1.2,2.4,2.2,3.2,1,.8,2.2,1.2,3.6,1.2Z"/>
      <path d="M269.3,112c-1,0-1.9-.3-2.7-1s-1.1-1.5-1.1-2.5.4-1.8,1.1-2.5c.7-.7,1.6-1,2.7-1s1.9.4,2.7,1c.7.7,1.1,1.5,1.1,2.5s-.4,1.8-1.1,2.5c-.7.7-1.6,1-2.7,1ZM266,143.8v-27.8h6.6v27.8h-6.6Z"/>
      <path d="M293.6,154.8c-2.4,0-4.4-.3-6.1-1-1.7-.6-3-1.5-4.1-2.5s-1.7-2.2-2.1-3.5l5.9-1.4c.3.5.7,1.1,1.2,1.6.5.5,1.2,1,2.1,1.3.9.4,2,.5,3.3.5s3.4-.4,4.6-1.3c1.2-.9,1.8-2.4,1.8-4.4v-5.3h-.3c-.3.7-.8,1.4-1.5,2.1-.6.7-1.5,1.3-2.6,1.8-1.1.5-2.4.7-4,.7s-4.1-.5-5.8-1.5c-1.7-1-3.1-2.5-4.1-4.5-1-2-1.5-4.5-1.5-7.6s.5-5.6,1.5-7.7,2.4-3.7,4.1-4.8,3.7-1.6,5.8-1.6,3,.3,4,.8c1.1.5,1.9,1.2,2.5,2s1.1,1.5,1.4,2.2h.4v-4.6h6.5v28.3c0,2.4-.6,4.3-1.7,5.9s-2.7,2.7-4.7,3.5c-2,.8-4.2,1.2-6.7,1.2ZM293.7,138.2c1.4,0,2.6-.3,3.5-1,1-.7,1.7-1.6,2.2-2.9.5-1.3.8-2.8.8-4.6s-.3-3.3-.8-4.6c-.5-1.3-1.2-2.3-2.2-3.1s-2.2-1.1-3.6-1.1-2.7.4-3.7,1.1c-1,.8-1.7,1.8-2.2,3.1-.5,1.3-.7,2.8-.7,4.5s.3,3.2.8,4.5c.5,1.3,1.2,2.3,2.2,3,1,.7,2.2,1.1,3.6,1.1Z"/>
      <path d="M318.9,112c-1,0-1.9-.3-2.7-1s-1.1-1.5-1.1-2.5.4-1.8,1.1-2.5c.7-.7,1.6-1,2.7-1s1.9.4,2.7,1c.7.7,1.1,1.5,1.1,2.5s-.4,1.8-1.1,2.5c-.7.7-1.6,1-2.7,1ZM315.6,143.8v-27.8h6.6v27.8h-6.6Z"/>
      <path d="M345.1,116v5.1h-16v-5.1h16ZM333,109.3h6.6v26.1c0,.9.1,1.6.4,2,.3.5.6.8,1.1,1s.9.3,1.5.3.8,0,1.1,0,.6-.1.8-.2l1.1,5.1c-.3.1-.8.3-1.5.4-.6.1-1.4.2-2.4.3-1.6,0-3.1-.2-4.4-.8-1.3-.5-2.4-1.4-3.1-2.6-.8-1.2-1.1-2.6-1.1-4.3v-27.2Z"/>
      <path d="M360.8,144.3c-1.8,0-3.3-.3-4.8-.9-1.4-.6-2.5-1.6-3.3-2.8-.8-1.2-1.2-2.8-1.2-4.6s.3-2.9.9-3.9c.6-1,1.4-1.8,2.4-2.5,1-.6,2.1-1.1,3.4-1.4,1.3-.3,2.6-.6,3.9-.7,1.6-.2,3-.3,4-.5,1-.1,1.8-.4,2.2-.7.5-.3.7-.8.7-1.4h0c0-1.5-.4-2.5-1.2-3.3-.8-.7-2-1.1-3.5-1.1s-2.9.4-3.8,1c-.9.7-1.6,1.5-1.9,2.5l-6.1-.9c.5-1.7,1.3-3.1,2.4-4.2s2.5-2,4.1-2.6c1.6-.6,3.4-.9,5.3-.9s2.7.2,4,.5c1.3.3,2.5.8,3.6,1.5s2,1.7,2.7,2.9c.7,1.2,1,2.8,1,4.6v18.6h-6.3v-3.8h-.2c-.4.8-1,1.5-1.7,2.2-.7.7-1.6,1.2-2.7,1.6-1.1.4-2.3.6-3.8.6ZM362.5,139.5c1.3,0,2.5-.3,3.4-.8,1-.5,1.7-1.2,2.2-2.1.5-.9.8-1.8.8-2.8v-3.3c-.2.2-.6.3-1,.5-.5.1-1,.3-1.6.4-.6.1-1.2.2-1.8.3-.6,0-1.1.2-1.5.2-1,.1-1.9.4-2.6.7-.8.3-1.4.7-1.8,1.3-.4.5-.7,1.2-.7,2.1,0,1.2.4,2.1,1.3,2.7.9.6,2,.9,3.4.9Z"/>
      <path d="M390.9,106.7v37.1h-6.6v-37.1h6.6Z"/>
    </g>
  </g>
</svg>